<svg xmlns="http://www.w3.org/2000/svg" width="44" height="44" viewBox="0 0 44 44">
  <g id="Group_58" data-name="Group 58" transform="translate(-348.353 -7371.353)">
    <g id="_003-instagram" data-name="003-instagram" transform="translate(361.313 7384.313)">
      <g id="Group_50" data-name="Group 50">
        <g id="Group_49" data-name="Group 49">
          <path id="Path_51" data-name="Path 51" d="M12.43,0H5.65A5.651,5.651,0,0,0,0,5.65v6.78a5.651,5.651,0,0,0,5.65,5.65h6.78a5.651,5.651,0,0,0,5.65-5.65V5.65A5.651,5.651,0,0,0,12.43,0Zm3.955,12.43a3.959,3.959,0,0,1-3.955,3.955H5.65A3.959,3.959,0,0,1,1.7,12.43V5.65A3.959,3.959,0,0,1,5.65,1.7h6.78A3.959,3.959,0,0,1,16.386,5.65Z" fill="#fff"/>
        </g>
      </g>
      <g id="Group_52" data-name="Group 52" transform="translate(4.52 4.52)">
        <g id="Group_51" data-name="Group 51">
          <path id="Path_52" data-name="Path 52" d="M132.52,128a4.52,4.52,0,1,0,4.52,4.52A4.52,4.52,0,0,0,132.52,128Zm0,7.345a2.825,2.825,0,1,1,2.825-2.825A2.829,2.829,0,0,1,132.52,135.345Z" transform="translate(-128 -128)" fill="#fff"/>
        </g>
      </g>
      <g id="Group_54" data-name="Group 54" transform="translate(13.297 3.579)">
        <g id="Group_53" data-name="Group 53">
          <circle id="Ellipse_27" data-name="Ellipse 27" cx="0.602" cy="0.602" r="0.602" fill="#fff"/>
        </g>
      </g>
    </g>
    <g id="Ellipse_30" data-name="Ellipse 30" transform="translate(348.353 7371.354)" fill="none" stroke="#fff" stroke-width="0.5">
      <circle cx="22" cy="22" r="22" stroke="none"/>
      <circle cx="22" cy="22" r="21.75" fill="none"/>
    </g>
  </g>
</svg>
