<svg xmlns="http://www.w3.org/2000/svg" width="104.67" height="103.443" viewBox="0 0 104.67 103.443"><defs><style>.a,.b{fill:#fff;}.b{font-size:30px;font-family:ProximaNova-Bold, Proxima Nova;font-weight:700;}.c{fill:none;stroke:#fff;stroke-linecap:round;stroke-width:2px;}</style></defs><g transform="translate(0 -3)"><g transform="translate(78.487 47.522)"><path class="a" d="M397.735,230.616a26.636,26.636,0,0,0-10.88-9.629,2.044,2.044,0,1,0-1.772,3.685A22.507,22.507,0,0,1,395.22,255.5a2.044,2.044,0,1,0,3.609,1.92,26.606,26.606,0,0,0-1.094-26.8Z" transform="translate(-383.924 -220.785)"/></g><g transform="translate(70.938 45.113)"><path class="a" d="M349.182,209h-.138a2.044,2.044,0,1,0,0,4.089h.128a2.044,2.044,0,0,0,.009-4.089Z" transform="translate(-347 -209.001)"/></g><g transform="translate(43.34 58.138)"><path class="a" d="M228.848,306.543a22.507,22.507,0,0,1-10.137-30.827,2.044,2.044,0,0,0-3.609-1.92,26.588,26.588,0,0,0,11.975,36.432,2.044,2.044,0,1,0,1.771-3.685Z" transform="translate(-212.002 -272.711)"/></g><g transform="translate(64.678 94.177)"><path class="a" d="M318.55,449h-.118a2.044,2.044,0,0,0-.019,4.089h.137a2.044,2.044,0,0,0,0-4.089Z" transform="translate(-316.378 -448.999)"/></g><g transform="translate(0 3)"><g transform="translate(0 0)"><path class="a" d="M79.2,38.2a9.384,9.384,0,0,0-.908-1.67h5.322a9.4,9.4,0,1,0,0-18.808H67.242A9.4,9.4,0,0,0,59.49,3H9.4a9.4,9.4,0,0,0,0,18.808H25.775a9.378,9.378,0,0,0,0,10.63H20.443A9.4,9.4,0,0,0,14.6,49.2a9.387,9.387,0,0,0,0,14.719,9.387,9.387,0,0,0,0,14.719A9.4,9.4,0,0,0,20.443,95.4H44.536A34.746,34.746,0,1,0,79.2,38.2Zm4.414-16.389a5.315,5.315,0,0,1,0,10.63H33.527a5.315,5.315,0,1,1,0-10.63ZM9.4,17.719a5.315,5.315,0,0,1,0-10.631H59.49a5.315,5.315,0,0,1,0,10.631ZM20.443,36.527H70.529a5.312,5.312,0,0,1,2.319.534c-.967-.081-1.945-.125-2.932-.125A34.646,34.646,0,0,0,45.323,47.157H20.443a5.315,5.315,0,1,1,0-10.63Zm0,14.719H41.83a34.655,34.655,0,0,0-5.255,10.631H20.443a5.315,5.315,0,0,1,0-10.631Zm0,14.719H35.637A34.781,34.781,0,0,0,35.511,76.6H20.443a5.315,5.315,0,0,1,0-10.631Zm0,25.35a5.315,5.315,0,0,1,0-10.631h15.9a34.616,34.616,0,0,0,4.9,10.631Zm49.473,11.04A30.665,30.665,0,1,1,100.581,71.69,30.7,30.7,0,0,1,69.916,102.354Z" transform="translate(0 -3)"/></g></g><text class="b" transform="translate(59.335 52.721)"><tspan x="0" y="28">N</tspan></text><line class="c" x2="27" transform="translate(56.835 67.221)"/><line class="c" x2="27" transform="translate(56.835 73.221)"/></g></svg>