<svg xmlns="http://www.w3.org/2000/svg" width="58.978" height="65.724" viewBox="0 0 58.978 65.724"><defs><style>.a{fill:none;}.b,.c{fill:#1b207f;}.c{font-size:12px;font-family:ProximaNova-Bold, Proxima Nova;font-weight:700;}</style></defs><g transform="translate(-26.284 0)"><g transform="translate(27.247 0.963)"><path class="a" d="M33.785,16.437V68.512a2.79,2.79,0,0,0,2.79,2.79H76.981a2.79,2.79,0,0,0,2.79-2.79V10.293a2.79,2.79,0,0,0-2.79-2.79H43.208Z" transform="translate(-33.785 -7.503)"/></g><g transform="translate(27.247 0.963)"><path class="b" d="M43.208,7.5v6.884a2.175,2.175,0,0,1-2.175,2.175H33.785Z" transform="translate(-33.785 -7.503)"/></g><g transform="translate(62.166 4.985)"><circle class="a" cx="11.067" cy="11.067" r="11.067"/></g><g transform="translate(67.022 5.734)"><path class="a" d="M361.031,55a11.069,11.069,0,0,1-17.278,9.162,11.069,11.069,0,0,0,10.222-19.48A11.072,11.072,0,0,1,361.031,55Z" transform="translate(-343.753 -44.684)"/></g><g transform="translate(26.284 0)"><path class="b" d="M76.163,119.519H88.9a.962.962,0,1,0,0-1.925H76.163a.962.962,0,1,0,0,1.925Z" transform="translate(-68.924 -102.504)"/><path class="b" d="M76.163,157.437H98.844a.962.962,0,0,0,0-1.925H76.163a.962.962,0,0,0,0,1.925Z" transform="translate(-68.924 -135.557)"/><path class="b" d="M74.2,4.061V3.752A3.756,3.756,0,0,0,70.443,0H36.72a1.8,1.8,0,0,0-1.147.649L26.607,8.61a.962.962,0,0,0-.323.72V40.112a.962.962,0,0,0,1.925,0V10.983h6.286a3.14,3.14,0,0,0,3.137-3.137V1.925H70.443A1.829,1.829,0,0,1,72.27,3.752v.309a11.963,11.963,0,0,0-5.664,1.949.962.962,0,1,0,1.062,1.606,10.1,10.1,0,1,1-2.912,2.934A.962.962,0,1,0,63.142,9.5,12.031,12.031,0,0,0,72.27,28.043V61.972A1.829,1.829,0,0,1,70.443,63.8H30.036a1.83,1.83,0,0,1-1.827-1.828V44.6a.962.962,0,1,0-1.925,0V61.972a3.757,3.757,0,0,0,3.752,3.752H70.443A3.756,3.756,0,0,0,74.2,61.972V28.043a12.03,12.03,0,0,0,0-23.982ZM35.707,7.847a1.213,1.213,0,0,1-1.212,1.212H29.636l6.071-5.836Z" transform="translate(-26.284 0)"/><path class="b" d="M76.163,250.519H109.6a.962.962,0,1,0,0-1.925H76.163a.962.962,0,1,0,0,1.925Z" transform="translate(-68.924 -216.694)"/><path class="b" d="M76.163,287.8H109.6a.962.962,0,1,0,0-1.925H76.163a.962.962,0,1,0,0,1.925Z" transform="translate(-68.924 -249.192)"/><path class="b" d="M76.163,325.083H109.6a.962.962,0,1,0,0-1.925H76.163a.962.962,0,1,0,0,1.925Z" transform="translate(-68.924 -281.69)"/><path class="b" d="M76.163,362.365H91.819a.962.962,0,1,0,0-1.925H76.163a.962.962,0,1,0,0,1.925Z" transform="translate(-68.924 -314.188)"/></g><text class="c" transform="translate(65.964 19.768)"><tspan x="0" y="0">80</tspan></text></g></svg>