<svg xmlns="http://www.w3.org/2000/svg" width="113.059" height="139.781" viewBox="0 0 113.059 139.781"><defs><style>.a{fill:#f1f3f6;}</style></defs><g transform="translate(-13.365 69.887) rotate(-45)"><g transform="translate(4.441 36.713)"><path class="a" d="M49.968,191.974a1.644,1.644,0,0,0-1.357-.894l-13.858-.924a1.617,1.617,0,0,0-1.644,1.043l-9.99,25.532a1.647,1.647,0,0,0,2.522,1.918l8.292-6.218,4.828.965a1.646,1.646,0,0,0,1.861-1.028A107.048,107.048,0,0,1,49.9,193.6,1.647,1.647,0,0,0,49.968,191.974ZM38.049,209.892l-4.194-.838a1.659,1.659,0,0,0-1.311.3L28.3,212.538l7.44-19.016,9.946.662A111.247,111.247,0,0,0,38.049,209.892Z" transform="translate(-23.005 -190.148)"/></g><g transform="translate(33.304 67.261)"><path class="a" d="M201.339,363.786l-.924-13.86a1.648,1.648,0,0,0-2.52-1.287,107.1,107.1,0,0,1-18.769,9.274,1.644,1.644,0,0,0-1.028,1.861l.965,4.828-6.218,8.291a1.648,1.648,0,0,0,1.318,2.637,1.743,1.743,0,0,0,.6-.11l25.532-9.99A1.647,1.647,0,0,0,201.339,363.786Zm-22.384,6.452,3.186-4.248a1.648,1.648,0,0,0,.3-1.311l-.838-4.192a111.152,111.152,0,0,0,15.708-7.633l.664,9.944Z" transform="translate(-172.515 -348.387)"/></g><g transform="translate(21.093 49.427)"><path class="a" d="M135.94,256.007h-11.1a1.65,1.65,0,0,0-1.44.847L109.47,281.885a1.647,1.647,0,0,0,1.44,2.448,1.626,1.626,0,0,0,.852-.239l25.031-15.148a1.646,1.646,0,0,0,.794-1.408v-9.884A1.648,1.648,0,0,0,135.94,256.007Zm-1.647,10.6-18.925,11.453,10.44-18.76v0h8.485Z" transform="translate(-109.263 -256.007)"/></g><g transform="translate(18.872 0.029)"><path class="a" d="M177.647,1.687A1.649,1.649,0,0,0,176.141.181c-.547-.043-54.792-3.83-78.272,57.668a1.646,1.646,0,0,0,.374,1.753l7.833,7.833a1.647,1.647,0,0,0,2.608-.371l7.847-14.249h8.48v7.329l-14.334,9.05a1.647,1.647,0,0,0-.285,2.558l7.833,7.833a1.645,1.645,0,0,0,1.165.483,1.622,1.622,0,0,0,.588-.109C181.478,56.477,177.693,2.232,177.647,1.687Zm-8.641,29.225C163.225,45.213,150,64.656,119.8,76.5l-5.617-5.617,13.359-8.434a1.651,1.651,0,0,0,.768-1.394V51.17a1.648,1.648,0,0,0-1.647-1.647h-11.1a1.648,1.648,0,0,0-1.443.853l-7.259,13.181-5.523-5.525C121.942,5.449,165.877,3.3,174.418,3.418A73,73,0,0,1,169.005,30.912Z" transform="translate(-97.761 -0.123)"/></g><g transform="translate(0 68.581)"><g transform="translate(0)"><path class="a" d="M28.217,359.4a1.643,1.643,0,0,0-1.486-.646,1.649,1.649,0,0,0-.646-1.486,10.3,10.3,0,0,0-8.8-1.715,11.08,11.08,0,0,0-7.4,6.177L.148,383.161a1.646,1.646,0,0,0,2.181,2.181l21.426-9.74a11.075,11.075,0,0,0,6.175-7.4A10.3,10.3,0,0,0,28.217,359.4Zm-1.479,7.987a7.8,7.8,0,0,1-4.345,5.212L4.965,380.525,12.886,363.1A7.8,7.8,0,0,1,18.1,358.75a7.454,7.454,0,0,1,1.832-.231,6.951,6.951,0,0,1,2.944.646l-1.568,2.776a1.648,1.648,0,0,0,2.245,2.245l2.776-1.57A7.139,7.139,0,0,1,26.738,367.392Z" transform="translate(0 -355.225)"/></g></g><g transform="translate(62.424 0.006)"><g transform="translate(0 0)"><path class="a" d="M359.694,1.595A1.65,1.65,0,0,0,358.188.089c-.642-.051-15.912-1.208-33.871,7.065a1.647,1.647,0,0,0-.476,2.66l26.125,26.125a1.648,1.648,0,0,0,1.165.483,1.748,1.748,0,0,0,.292-.025,1.648,1.648,0,0,0,1.206-.932C360.9,17.507,359.747,2.235,359.694,1.595Zm-9.1,30.314L327.873,9.183a73.3,73.3,0,0,1,28.594-5.866A73.111,73.111,0,0,1,350.6,31.909Z" transform="translate(-323.359 -0.006)"/></g></g><g transform="translate(48.502 21.942)"><path class="a" d="M275.491,117.791a14.2,14.2,0,1,0,0,20.091A14.222,14.222,0,0,0,275.491,117.791Zm-2.329,17.762a10.907,10.907,0,1,1,0-15.433A10.925,10.925,0,0,1,273.162,135.553Z" transform="translate(-251.245 -113.636)"/></g><g transform="translate(54.779 28.221)"><path class="a" d="M294.955,157.355a4.632,4.632,0,1,1,0-6.551,1.647,1.647,0,0,0,2.329-2.329,7.922,7.922,0,1,0,0,11.209,1.647,1.647,0,0,0-2.329-2.329Z" transform="translate(-283.757 -146.157)"/></g></g></svg>