<svg xmlns="http://www.w3.org/2000/svg" width="96.93" height="97" viewBox="0 0 96.93 97"><defs><style>.a{fill:#fff;}</style></defs><g transform="translate(-0.185 0.001)"><g transform="translate(0.185 -0.001)"><g transform="translate(0)"><path class="a" d="M89.223,22.018l7.069-7.069a2.383,2.383,0,0,0-1.916-4.056l-9.168.893L86.1,2.618A2.383,2.383,0,0,0,82.045.7L74.936,7.811A48.476,48.476,0,0,0,6.646,72.727,1.43,1.43,0,0,0,9.122,71.3,45.615,45.615,0,0,1,72.865,9.882L68.044,14.7a2.374,2.374,0,0,0-.687,1.917l.245,2.5A34.647,34.647,0,0,0,48.65,13.55,34.984,34.984,0,1,0,83.634,48.534,34.643,34.643,0,0,0,77.941,29.4l2.432.238c.078.008.157.011.235.011a2.372,2.372,0,0,0,1.682-.7l4.865-4.865a45.35,45.35,0,0,1,7.1,24.449,46.32,46.32,0,0,1-.362,5.779,1.429,1.429,0,0,0,1.239,1.6,1.464,1.464,0,0,0,.181.011,1.43,1.43,0,0,0,1.416-1.251,49.119,49.119,0,0,0,.385-6.138A48.194,48.194,0,0,0,89.223,22.018ZM80.775,48.534A32.125,32.125,0,1,1,48.65,16.409a31.834,31.834,0,0,1,19.319,6.457l.359,3.662v.01l-5.492,5.571a21.763,21.763,0,1,0,2.035,2.008l5.4-5.478c.064.012.128.021.194.028l3.717.364c.012.018.023.036.037.054A31.834,31.834,0,0,1,80.775,48.534ZM47.646,49.552a1.43,1.43,0,0,0,2.022-.014l5.493-5.572a7.959,7.959,0,1,1-2.035-2.008l-5.494,5.573A1.429,1.429,0,0,0,47.646,49.552Zm7.51-9.654a10.851,10.851,0,1,0,2.035,2.009l5.67-5.751a18.886,18.886,0,1,1-2.036-2.007ZM80.428,26.769l-9.192-.9a1.437,1.437,0,0,0-.113-.127l-.9-9.177,12.9-12.9-.821,8.422h0a2.383,2.383,0,0,0,2.6,2.6l8.422-.821Z" transform="translate(-0.185 0.001)"/></g></g><g transform="translate(12.476 62.681)"><path class="a" d="M146.1,330.936a1.43,1.43,0,0,0-1.822.876A45.6,45.6,0,0,1,67.548,347.45a1.43,1.43,0,0,0-2.111,1.928,48.477,48.477,0,0,0,81.544-16.62A1.429,1.429,0,0,0,146.1,330.936Z" transform="translate(-65.063 -330.856)"/></g></g></svg>