<svg xmlns="http://www.w3.org/2000/svg" width="44" height="44" viewBox="0 0 44 44">
  <g id="Group_63" data-name="Group 63" transform="translate(-459 -7341)">
    <path id="youtube" d="M17.486-4.126A2.237,2.237,0,0,0,15.913-5.7a52.26,52.26,0,0,0-6.986-.382,54.3,54.3,0,0,0-6.986.368A2.282,2.282,0,0,0,.368-4.126,23.569,23.569,0,0,0,0,.168,23.482,23.482,0,0,0,.368,4.463,2.237,2.237,0,0,0,1.941,6.036a52.355,52.355,0,0,0,6.986.382,54.3,54.3,0,0,0,6.986-.368,2.237,2.237,0,0,0,1.574-1.574A23.576,23.576,0,0,0,17.854.183,22.373,22.373,0,0,0,17.486-4.126ZM7.148,2.845V-2.508L11.795.168Zm0,0" transform="translate(472.072 7362.883)" fill="#fff"/>
    <g id="Ellipse_31" data-name="Ellipse 31" transform="translate(459 7341)" fill="none" stroke="#fff" stroke-width="0.5">
      <circle cx="22" cy="22" r="22" stroke="none"/>
      <circle cx="22" cy="22" r="21.75" fill="none"/>
    </g>
  </g>
</svg>
